<svg width="100" height="100" viewBox="0 0 100 100" fill="none" xmlns="http://www.w3.org/2000/svg">
<path fill-rule="evenodd" clip-rule="evenodd" d="M47.0386 0.0534651C45.9393 0.11983 44.3322 0.283671 43.008 0.464455C39.6832 0.918353 36.1643 1.79217 32.8971 2.97522C32.1087 3.26067 30.5959 3.85268 30.5288 3.90196C30.5037 3.92036 30.309 4.00722 30.0961 4.09495C29.3092 4.41931 27.4287 5.32255 26.5527 5.79694C25.5201 6.35615 25.3267 6.46661 24.1526 7.16711C17.759 10.9819 12.0207 16.5627 7.91178 22.9622C6.82605 24.6532 6.10858 25.9078 5.30696 27.5171C3.05301 32.0422 1.55004 36.6009 0.696767 41.5007C0.488902 42.6945 0.214816 44.9731 0.0969468 46.4877C-0.0130885 47.902 -0.0338112 51.1587 0.0572776 52.7272C0.284362 56.6371 0.917976 60.3709 1.96668 63.9792C2.79591 66.8326 3.78363 69.3704 5.11335 72.0642C6.75103 75.3821 8.45563 78.0926 10.7134 80.9691C12.9255 83.7875 15.9343 86.8133 18.783 89.0843C19.158 89.3833 19.2579 89.4606 20.008 90.0327C21.4382 91.1234 23.4017 92.4188 25.1318 93.413C28.0007 95.0617 31.1608 96.4651 34.4228 97.5391C37.062 98.4081 40.0019 99.1002 42.6671 99.4802C45.205 99.842 46.895 99.9704 49.4511 99.9955C52.1453 100.022 53.6813 99.9367 56.2614 99.6175C60.0638 99.147 63.6962 98.2649 67.3742 96.9187C69.9331 95.9821 72.9404 94.5478 75.4356 93.0739C78.5475 91.2357 81.4154 89.0955 83.9962 86.6855C85.9654 84.8466 88.0763 82.5433 89.5275 80.6502C90.3805 79.5375 90.8287 78.9183 91.5904 77.8001C92.0499 77.1257 92.9034 75.7505 93.4119 74.8655C95.0604 71.9962 96.4636 68.8358 97.5375 65.5734C98.4239 62.8809 99.1237 59.8842 99.505 57.1486C99.8436 54.7191 99.9686 53.0457 99.995 50.5878C100.025 47.7532 99.9225 46.0221 99.5548 43.186C99.0655 39.4117 97.9101 35.0354 96.44 31.3886C95.7691 29.7244 94.713 27.4889 93.8794 25.9684C92.4726 23.4026 90.6092 20.6305 88.8257 18.4502C85.4386 14.3098 81.2306 10.5555 76.893 7.80438C71.2324 4.2142 65.084 1.83626 58.4931 0.688238C57.3235 0.484542 55.057 0.210473 53.5299 0.088128C52.2887 -0.0113058 48.4517 -0.0318029 47.0386 0.0534651ZM52.6178 1.00872C54.6088 1.11631 55.722 1.23364 57.8327 1.55832C59.6026 1.83061 62.3792 2.46538 64.1114 2.99375C68.3438 4.2848 71.9654 5.92156 75.891 8.3175C77.5816 9.34932 80.2618 11.3033 81.6877 12.5435C83.7838 14.3667 85.1107 15.663 86.6408 17.3824C88.1486 19.0768 89.2119 20.444 90.7146 22.6206C91.2153 23.3457 92.0916 24.7652 92.7816 25.9684C93.2051 26.7069 94.453 29.1684 94.6753 29.7035C94.7585 29.9039 94.8934 30.2113 94.9751 30.3867C95.0567 30.5621 95.2406 30.9925 95.3839 31.3432C97.0916 35.5257 98.1732 39.7157 98.729 44.302C99.1736 47.9707 99.1476 52.6173 98.6624 56.2203C98.1813 59.7927 97.5064 62.7023 96.4294 65.8467C95.1998 69.4366 93.7748 72.4456 91.6728 75.8903C91.1229 76.7916 90.1045 78.2783 89.2859 79.3748C86.5126 83.09 83.0122 86.5912 79.3752 89.2879C78.5983 89.8638 77.8761 90.3825 77.5534 90.5961C77.4156 90.6873 77.2619 90.7902 77.2118 90.8248C76.4845 91.327 75.0946 92.1755 73.7732 92.9239C73.1043 93.3029 70.4836 94.6161 70.0925 94.7684C69.9593 94.8202 69.7236 94.9216 69.5687 94.9936C69.1762 95.1763 68.1247 95.6061 67.4198 95.8722C63.6344 97.3006 59.8197 98.2304 55.6921 98.7307C52.3015 99.1416 47.7087 99.1505 44.4654 98.7524C41.9191 98.4398 40.0126 98.0878 37.7968 97.5213C35.3227 96.8888 32.314 95.8583 30.4377 95.0008C30.2874 94.9321 29.9595 94.7868 29.709 94.6779C29.038 94.3862 26.6154 93.1555 25.906 92.7459C24.3529 91.8492 22.4799 90.6544 21.4962 89.9326C18.9025 88.0297 17.3255 86.69 15.3156 84.6819C14.2046 83.5719 12.8404 82.0786 12.1744 81.2433C12.0992 81.1491 11.8423 80.8285 11.6033 80.5309C10.956 79.7246 9.84254 78.221 9.43565 77.6037C9.31373 77.4187 9.07626 77.06 8.90797 76.8066C8.25386 75.8217 7.47264 74.505 6.71569 73.1118C6.39939 72.5297 5.38461 70.4649 5.21072 70.0497C5.14541 69.8938 5.04298 69.6581 4.98309 69.5259C4.9232 69.3938 4.79955 69.1012 4.70832 68.8757C4.61714 68.6503 4.52364 68.4248 4.50059 68.3747C4.42804 68.217 4.31732 67.9337 4.15341 67.4865C4.06624 67.2485 3.97319 67.0025 3.94668 66.9399C3.92022 66.8773 3.74884 66.3853 3.56588 65.8467C2.43411 62.5151 1.70599 59.295 1.26903 55.6893C0.825157 52.0264 0.851208 47.3681 1.33562 43.771C1.81634 40.2011 2.51982 37.1749 3.58902 34.0769C4.0702 32.6827 4.63026 31.2362 5.00577 30.4176C5.07841 30.2592 5.20302 29.973 5.28268 29.7817C5.50567 29.246 6.85524 26.587 7.24127 25.9229C7.58974 25.3234 8.01348 24.6047 8.25947 24.1959C8.45827 23.8657 9.82178 21.8218 10.0549 21.5046C11.9839 18.8802 13.3308 17.2939 15.3157 15.3087C17.6145 13.0097 19.5784 11.389 22.6268 9.27521C23.4105 8.73186 24.5433 8.03295 25.9743 7.2101C26.7139 6.78481 29.0435 5.60245 29.709 5.31462C29.9595 5.20626 30.2874 5.06114 30.4377 4.99209C30.588 4.92304 30.9979 4.74936 31.3486 4.6061C35.5215 2.90156 39.6547 1.83298 44.2847 1.26166C46.6619 0.96832 49.9969 0.867064 52.6178 1.00872ZM32.2367 46.0958V62.2033L36.2104 62.1916L40.1842 62.18L40.1957 54.7669C40.2032 49.931 40.2229 47.3538 40.2522 47.3538C40.2769 47.3538 40.407 47.4512 40.5414 47.5701C40.6757 47.6891 41.2436 48.1759 41.8034 48.6519C42.3631 49.1279 42.9259 49.6096 43.0541 49.7223C43.1823 49.8351 43.4582 50.0708 43.6673 50.2461C43.8763 50.4215 44.2849 50.7693 44.5752 51.0189C47.1884 53.2665 47.5863 53.5987 47.6312 53.571C47.66 53.5531 47.6763 52.674 47.6763 51.1326V48.7221L47.5055 48.6345C47.2901 48.524 47.1535 48.3783 47.0636 48.1631C46.8911 47.7503 47.0758 47.2955 47.5055 47.0751L47.6763 46.9875V45.0982C47.6763 44.059 47.6908 43.2088 47.7085 43.2088C47.7262 43.2088 47.8185 43.2847 47.9135 43.3775L48.0862 43.5461V39.4883C48.0862 34.7389 48.0301 35.1246 48.625 35.7774C49.0161 36.2068 50.8763 38.2663 51.6329 39.1077C51.8928 39.3967 52.2105 39.7478 52.3389 39.8878C52.4673 40.0279 52.7158 40.3038 52.8911 40.5011C53.3065 40.9685 54.5706 42.3651 54.7685 42.5755L54.9227 42.7394L54.8025 42.9627C54.6976 43.1575 54.6856 43.221 54.709 43.4594L54.7359 43.7327L54.3828 43.944C54.1886 44.0602 53.7428 44.324 53.3921 44.5301C53.0414 44.7363 52.7032 44.9394 52.6406 44.9816C52.578 45.0237 52.1835 45.2597 51.7639 45.5061C51.3443 45.7524 51.001 45.9682 51.001 45.9855C51.001 46.0202 51.1725 46.1825 51.2639 46.2344C51.314 46.2628 52.0175 45.8787 52.5951 45.5076C52.6827 45.4513 53.2645 45.1033 53.8879 44.7342L55.0214 44.0633L55.1761 44.1371C55.3858 44.2371 55.7677 44.232 55.9661 44.1265C56.0533 44.08 56.1856 43.9563 56.2598 43.8514C56.3708 43.6948 56.3952 43.6146 56.3963 43.4007C56.3992 42.8779 56.0608 42.5256 55.5559 42.5256H55.3009L54.5059 41.6489C54.0687 41.1667 53.4451 40.4749 53.1201 40.1116C52.7952 39.7482 52.3238 39.2247 52.0726 38.9482C51.2876 38.0841 50.8029 37.5479 50.6139 37.3345C50.4282 37.1248 50.1751 36.8464 49.7237 36.3552C49.5848 36.204 49.3081 35.8969 49.1088 35.6728C48.9096 35.4486 48.7125 35.2301 48.6709 35.1871C48.6037 35.1179 48.6022 35.0892 48.6575 34.9342C48.8246 34.4655 48.6199 33.9944 48.1667 33.8051C47.9328 33.7073 47.7305 33.7169 47.4929 33.8371C47.117 34.0272 46.9152 34.4764 47.0382 34.8491C47.1082 35.0614 47.3156 35.3004 47.4939 35.3742L47.6307 35.431V39.2769C47.6307 42.9739 47.6275 43.1206 47.5486 43.0634C47.5035 43.0306 46.6888 42.3371 45.7383 41.5222C44.2474 40.2441 41.2527 37.6814 40.5486 37.0811C39.6175 36.2874 38.2239 35.0963 37.5199 34.4925C37.4572 34.4388 37.0699 34.1079 36.6592 33.7573C36.2484 33.4066 35.3773 32.6619 34.7235 32.1024C34.0697 31.5428 33.3618 30.9382 33.1505 30.7587C32.9392 30.5791 32.683 30.3599 32.5812 30.2716C32.4794 30.1831 32.3602 30.0833 32.3164 30.0496C32.2405 29.9913 32.2367 30.7624 32.2367 46.0958ZM59.8123 38.6653C59.8004 38.6966 59.7857 42.0496 59.7795 46.1163L59.7683 53.5104L58.5842 52.4984C57.6059 51.6624 56.8712 51.034 55.7833 50.1031C54.939 49.3805 54.5302 49.0314 54.303 48.8391C54.1527 48.7118 54.0071 48.5869 53.9794 48.5615C53.9518 48.536 53.4714 48.1258 52.9119 47.6498C52.3524 47.1738 51.773 46.6768 51.6242 46.5453C51.4755 46.4137 51.3291 46.3061 51.2988 46.3061C51.2505 46.3061 49.9935 47.0395 49.0589 47.613C48.7476 47.804 48.7323 47.8215 48.7023 48.0217C48.677 48.1904 48.628 48.2738 48.449 48.4528C48.327 48.5749 48.1954 48.6747 48.1567 48.6747C48.0939 48.6747 48.0862 48.9625 48.0862 51.3165C48.0862 52.7696 48.0737 53.9584 48.0586 53.9584C48.0434 53.9584 47.9533 53.8969 47.8584 53.8218C47.7636 53.7466 47.6735 53.6851 47.6583 53.6851C47.6431 53.6851 47.6307 55.4055 47.6307 57.5083V61.3315L47.4492 61.4336C47.1024 61.6285 46.9314 62.0323 47.0342 62.4139C47.0877 62.6128 47.3462 62.9122 47.522 62.9791L47.6307 63.0204V63.8841V64.7477L47.4492 64.8498C47.3493 64.9059 47.211 65.0335 47.1418 65.1335C47.0375 65.2839 47.0159 65.3634 47.0159 65.5962C47.0159 65.833 47.037 65.9077 47.1497 66.0704C47.3215 66.3183 47.5568 66.4389 47.8687 66.4389C48.1912 66.4389 48.392 66.3262 48.585 66.0369L48.7422 65.8012H50.9875C52.802 65.8012 53.2327 65.8126 53.2327 65.8605C53.2327 65.9867 53.5108 66.2943 53.6895 66.3658C54.3447 66.6279 54.9918 66.1595 54.9 65.4895C54.7938 64.7147 53.8176 64.4794 53.3484 65.1154C53.2847 65.2017 53.2327 65.299 53.2327 65.3317C53.2327 65.3799 52.8044 65.3912 50.9875 65.3912H48.7422L48.585 65.1548C48.4918 65.0147 48.3582 64.883 48.257 64.8315L48.0862 64.7446V63.888V63.0313L48.2899 62.9119C48.4149 62.8387 48.5398 62.7137 48.613 62.5887L48.7324 62.385H49.999H51.2656L51.385 62.5887C51.4585 62.7143 51.5832 62.8387 51.7097 62.9128C51.8864 63.0164 51.9546 63.0306 52.2012 63.0148C52.5187 62.9947 52.6662 62.9087 52.8666 62.6269C53.0368 62.3877 53.0321 61.9709 52.8563 61.7173C52.4706 61.1606 51.6641 61.2075 51.3596 61.8042L51.2724 61.975H50.0015H48.7306L48.6247 61.7832C48.5311 61.6137 48.4412 61.532 48.159 61.3601C48.0904 61.3184 48.0852 61.01 48.0965 57.6776L48.1089 54.0406L49.4753 55.2084C50.2267 55.8507 51.0773 56.5781 51.3654 56.8248C51.6534 57.0715 52.3503 57.6667 52.9139 58.1476C53.4775 58.6284 54.2768 59.3121 54.6901 59.6668C55.1034 60.0214 55.4826 60.3457 55.5327 60.3873C55.5828 60.4288 55.9428 60.7364 56.3328 61.0709C56.7227 61.4053 57.1625 61.7815 57.3101 61.9067C57.4578 62.032 57.6734 62.2165 57.7894 62.3167C57.9054 62.4169 58.1726 62.6459 58.3833 62.8256C58.5939 63.0054 59.3094 63.6167 59.9733 64.1842C60.6371 64.7516 61.3526 65.363 61.5632 65.5427C62.2059 66.091 62.3576 66.2206 62.7786 66.5817C63.0016 66.7731 63.5735 67.2612 64.0495 67.6664C64.5254 68.0717 65.0788 68.5442 65.2792 68.7163C66.4177 69.6945 67.6724 70.762 67.7137 70.7875C67.7468 70.808 67.7614 65.9124 67.7614 54.7126V38.6083H63.7976C60.6684 38.6083 59.8292 38.6203 59.8123 38.6653ZM48.0862 45.2972C48.0862 47.0071 48.0873 47.0291 48.1803 47.0587C48.232 47.0751 48.3448 47.1503 48.4308 47.226C48.5318 47.3146 48.6144 47.353 48.6635 47.3342C48.7053 47.3181 49.2415 47.0053 49.8551 46.639L50.9705 45.973L50.8605 45.8865C50.8 45.8389 50.1702 45.3041 49.461 44.698C48.7518 44.0919 48.1523 43.5891 48.1288 43.5808C48.1028 43.5715 48.0862 44.2396 48.0862 45.2972Z" fill="white"/>
<path fill-rule="evenodd" clip-rule="evenodd" d="M47.0386 0.0534651C45.9393 0.11983 44.3322 0.283671 43.008 0.464455C39.6832 0.918353 36.1643 1.79217 32.8971 2.97522C32.1087 3.26067 30.5959 3.85268 30.5288 3.90196C30.5037 3.92036 30.309 4.00722 30.0961 4.09495C29.3092 4.41931 27.4287 5.32255 26.5527 5.79694C25.5201 6.35615 25.3267 6.46661 24.1526 7.16711C17.759 10.9819 12.0207 16.5627 7.91178 22.9622C6.82605 24.6532 6.10858 25.9078 5.30696 27.5171C3.05301 32.0422 1.55004 36.6009 0.696767 41.5007C0.488902 42.6945 0.214816 44.9731 0.0969468 46.4877C-0.0130885 47.902 -0.0338112 51.1587 0.0572776 52.7272C0.284362 56.6371 0.917976 60.3709 1.96668 63.9792C2.79591 66.8326 3.78363 69.3704 5.11335 72.0642C6.75103 75.3821 8.45563 78.0926 10.7134 80.9691C12.9255 83.7875 15.9343 86.8133 18.783 89.0843C19.158 89.3833 19.2579 89.4606 20.008 90.0327C21.4382 91.1234 23.4017 92.4188 25.1318 93.413C28.0007 95.0617 31.1608 96.4651 34.4228 97.5391C37.062 98.4081 40.0019 99.1002 42.6671 99.4802C45.205 99.842 46.895 99.9704 49.4511 99.9955C52.1453 100.022 53.6813 99.9367 56.2614 99.6175C60.0638 99.147 63.6962 98.2649 67.3742 96.9187C69.9331 95.9821 72.9404 94.5478 75.4356 93.0739C78.5475 91.2357 81.4154 89.0955 83.9962 86.6855C85.9654 84.8466 88.0763 82.5433 89.5275 80.6502C90.3805 79.5375 90.8287 78.9183 91.5904 77.8001C92.0499 77.1257 92.9034 75.7505 93.4119 74.8655C95.0604 71.9962 96.4636 68.8358 97.5375 65.5734C98.4239 62.8809 99.1237 59.8842 99.505 57.1486C99.8436 54.7191 99.9686 53.0457 99.995 50.5878C100.025 47.7532 99.9225 46.0221 99.5548 43.186C99.0655 39.4117 97.9101 35.0354 96.44 31.3886C95.7691 29.7244 94.713 27.4889 93.8794 25.9684C92.4726 23.4026 90.6092 20.6305 88.8257 18.4502C85.4386 14.3098 81.2306 10.5555 76.893 7.80438C71.2324 4.2142 65.084 1.83626 58.4931 0.688238C57.3235 0.484542 55.057 0.210473 53.5299 0.088128C52.2887 -0.0113058 48.4517 -0.0318029 47.0386 0.0534651ZM52.6178 1.00872C54.6088 1.11631 55.722 1.23364 57.8327 1.55832C59.6026 1.83061 62.3792 2.46538 64.1114 2.99375C68.3438 4.2848 71.9654 5.92156 75.891 8.3175C77.5816 9.34932 80.2618 11.3033 81.6877 12.5435C83.7838 14.3667 85.1107 15.663 86.6408 17.3824C88.1486 19.0768 89.2119 20.444 90.7146 22.6206C91.2153 23.3457 92.0916 24.7652 92.7816 25.9684C93.2051 26.7069 94.453 29.1684 94.6753 29.7035C94.7585 29.9039 94.8934 30.2113 94.9751 30.3867C95.0567 30.5621 95.2406 30.9925 95.3839 31.3432C97.0916 35.5257 98.1732 39.7157 98.729 44.302C99.1736 47.9707 99.1476 52.6173 98.6624 56.2203C98.1813 59.7927 97.5064 62.7023 96.4294 65.8467C95.1998 69.4366 93.7748 72.4456 91.6728 75.8903C91.1229 76.7916 90.1045 78.2783 89.2859 79.3748C86.5126 83.09 83.0122 86.5912 79.3752 89.2879C78.5983 89.8638 77.8761 90.3825 77.5534 90.5961C77.4156 90.6873 77.2619 90.7902 77.2118 90.8248C76.4845 91.327 75.0946 92.1755 73.7732 92.9239C73.1043 93.3029 70.4836 94.6161 70.0925 94.7684C69.9593 94.8202 69.7236 94.9216 69.5687 94.9936C69.1762 95.1763 68.1247 95.6061 67.4198 95.8722C63.6344 97.3006 59.8197 98.2304 55.6921 98.7307C52.3015 99.1416 47.7087 99.1505 44.4654 98.7524C41.9191 98.4398 40.0126 98.0878 37.7968 97.5213C35.3227 96.8888 32.314 95.8583 30.4377 95.0008C30.2874 94.9321 29.9595 94.7868 29.709 94.6779C29.038 94.3862 26.6154 93.1555 25.906 92.7459C24.3529 91.8492 22.4799 90.6544 21.4962 89.9326C18.9025 88.0297 17.3255 86.69 15.3156 84.6819C14.2046 83.5719 12.8404 82.0786 12.1744 81.2433C12.0992 81.1491 11.8423 80.8285 11.6033 80.5309C10.956 79.7246 9.84254 78.221 9.43565 77.6037C9.31373 77.4187 9.07626 77.06 8.90797 76.8066C8.25386 75.8217 7.47264 74.505 6.71569 73.1118C6.39939 72.5297 5.38461 70.4649 5.21072 70.0497C5.14541 69.8938 5.04298 69.6581 4.98309 69.5259C4.9232 69.3938 4.79955 69.1012 4.70832 68.8757C4.61714 68.6503 4.52364 68.4248 4.50059 68.3747C4.42804 68.217 4.31732 67.9337 4.15341 67.4865C4.06624 67.2485 3.97319 67.0025 3.94668 66.9399C3.92022 66.8773 3.74884 66.3853 3.56588 65.8467C2.43411 62.5151 1.70599 59.295 1.26903 55.6893C0.825157 52.0264 0.851208 47.3681 1.33562 43.771C1.81634 40.2011 2.51982 37.1749 3.58902 34.0769C4.0702 32.6827 4.63026 31.2362 5.00577 30.4176C5.07841 30.2592 5.20302 29.973 5.28268 29.7817C5.50567 29.246 6.85524 26.587 7.24127 25.9229C7.58974 25.3234 8.01348 24.6047 8.25947 24.1959C8.45827 23.8657 9.82178 21.8218 10.0549 21.5046C11.9839 18.8802 13.3308 17.2939 15.3157 15.3087C17.6145 13.0097 19.5784 11.389 22.6268 9.27521C23.4105 8.73186 24.5433 8.03295 25.9743 7.2101C26.7139 6.78481 29.0435 5.60245 29.709 5.31462C29.9595 5.20626 30.2874 5.06114 30.4377 4.99209C30.588 4.92304 30.9979 4.74936 31.3486 4.6061C35.5215 2.90156 39.6547 1.83298 44.2847 1.26166C46.6619 0.96832 49.9969 0.867064 52.6178 1.00872ZM32.2367 46.0958V62.2033L36.2104 62.1916L40.1842 62.18L40.1957 54.7669C40.2032 49.931 40.2229 47.3538 40.2522 47.3538C40.2769 47.3538 40.407 47.4512 40.5414 47.5701C40.6757 47.6891 41.2436 48.1759 41.8034 48.6519C42.3631 49.1279 42.9259 49.6096 43.0541 49.7223C43.1823 49.8351 43.4582 50.0708 43.6673 50.2461C43.8763 50.4215 44.2849 50.7693 44.5752 51.0189C47.1884 53.2665 47.5863 53.5987 47.6312 53.571C47.66 53.5531 47.6763 52.674 47.6763 51.1326V48.7221L47.5055 48.6345C47.2901 48.524 47.1535 48.3783 47.0636 48.1631C46.8911 47.7503 47.0758 47.2955 47.5055 47.0751L47.6763 46.9875V45.0982C47.6763 44.059 47.6908 43.2088 47.7085 43.2088C47.7262 43.2088 47.8185 43.2847 47.9135 43.3775L48.0862 43.5461V39.4883C48.0862 34.7389 48.0301 35.1246 48.625 35.7774C49.0161 36.2068 50.8763 38.2663 51.6329 39.1077C51.8928 39.3967 52.2105 39.7478 52.3389 39.8878C52.4673 40.0279 52.7158 40.3038 52.8911 40.5011C53.3065 40.9685 54.5706 42.3651 54.7685 42.5755L54.9227 42.7394L54.8025 42.9627C54.6976 43.1575 54.6856 43.221 54.709 43.4594L54.7359 43.7327L54.3828 43.944C54.1886 44.0602 53.7428 44.324 53.3921 44.5301C53.0414 44.7363 52.7032 44.9394 52.6406 44.9816C52.578 45.0237 52.1835 45.2597 51.7639 45.5061C51.3443 45.7524 51.001 45.9682 51.001 45.9855C51.001 46.0202 51.1725 46.1825 51.2639 46.2344C51.314 46.2628 52.0175 45.8787 52.5951 45.5076C52.6827 45.4513 53.2645 45.1033 53.8879 44.7342L55.0214 44.0633L55.1761 44.1371C55.3858 44.2371 55.7677 44.232 55.9661 44.1265C56.0533 44.08 56.1856 43.9563 56.2598 43.8514C56.3708 43.6948 56.3952 43.6146 56.3963 43.4007C56.3992 42.8779 56.0608 42.5256 55.5559 42.5256H55.3009L54.5059 41.6489C54.0687 41.1667 53.4451 40.4749 53.1201 40.1116C52.7952 39.7482 52.3238 39.2247 52.0726 38.9482C51.2876 38.0841 50.8029 37.5479 50.6139 37.3345C50.4282 37.1248 50.1751 36.8464 49.7237 36.3552C49.5848 36.204 49.3081 35.8969 49.1088 35.6728C48.9096 35.4486 48.7125 35.2301 48.6709 35.1871C48.6037 35.1179 48.6022 35.0892 48.6575 34.9342C48.8246 34.4655 48.6199 33.9944 48.1667 33.8051C47.9328 33.7073 47.7305 33.7169 47.4929 33.8371C47.117 34.0272 46.9152 34.4764 47.0382 34.8491C47.1082 35.0614 47.3156 35.3004 47.4939 35.3742L47.6307 35.431V39.2769C47.6307 42.9739 47.6275 43.1206 47.5486 43.0634C47.5035 43.0306 46.6888 42.3371 45.7383 41.5222C44.2474 40.2441 41.2527 37.6814 40.5486 37.0811C39.6175 36.2874 38.2239 35.0963 37.5199 34.4925C37.4572 34.4388 37.0699 34.1079 36.6592 33.7573C36.2484 33.4066 35.3773 32.6619 34.7235 32.1024C34.0697 31.5428 33.3618 30.9382 33.1505 30.7587C32.9392 30.5791 32.683 30.3599 32.5812 30.2716C32.4794 30.1831 32.3602 30.0833 32.3164 30.0496C32.2405 29.9913 32.2367 30.7624 32.2367 46.0958ZM59.8123 38.6653C59.8004 38.6966 59.7857 42.0496 59.7795 46.1163L59.7683 53.5104L58.5842 52.4984C57.6059 51.6624 56.8712 51.034 55.7833 50.1031C54.939 49.3805 54.5302 49.0314 54.303 48.8391C54.1527 48.7118 54.0071 48.5869 53.9794 48.5615C53.9518 48.536 53.4714 48.1258 52.9119 47.6498C52.3524 47.1738 51.773 46.6768 51.6242 46.5453C51.4755 46.4137 51.3291 46.3061 51.2988 46.3061C51.2505 46.3061 49.9935 47.0395 49.0589 47.613C48.7476 47.804 48.7323 47.8215 48.7023 48.0217C48.677 48.1904 48.628 48.2738 48.449 48.4528C48.327 48.5749 48.1954 48.6747 48.1567 48.6747C48.0939 48.6747 48.0862 48.9625 48.0862 51.3165C48.0862 52.7696 48.0737 53.9584 48.0586 53.9584C48.0434 53.9584 47.9533 53.8969 47.8584 53.8218C47.7636 53.7466 47.6735 53.6851 47.6583 53.6851C47.6431 53.6851 47.6307 55.4055 47.6307 57.5083V61.3315L47.4492 61.4336C47.1024 61.6285 46.9314 62.0323 47.0342 62.4139C47.0877 62.6128 47.3462 62.9122 47.522 62.9791L47.6307 63.0204V63.8841V64.7477L47.4492 64.8498C47.3493 64.9059 47.211 65.0335 47.1418 65.1335C47.0375 65.2839 47.0159 65.3634 47.0159 65.5962C47.0159 65.833 47.037 65.9077 47.1497 66.0704C47.3215 66.3183 47.5568 66.4389 47.8687 66.4389C48.1912 66.4389 48.392 66.3262 48.585 66.0369L48.7422 65.8012H50.9875C52.802 65.8012 53.2327 65.8126 53.2327 65.8605C53.2327 65.9867 53.5108 66.2943 53.6895 66.3658C54.3447 66.6279 54.9918 66.1595 54.9 65.4895C54.7938 64.7147 53.8176 64.4794 53.3484 65.1154C53.2847 65.2017 53.2327 65.299 53.2327 65.3317C53.2327 65.3799 52.8044 65.3912 50.9875 65.3912H48.7422L48.585 65.1548C48.4918 65.0147 48.3582 64.883 48.257 64.8315L48.0862 64.7446V63.888V63.0313L48.2899 62.9119C48.4149 62.8387 48.5398 62.7137 48.613 62.5887L48.7324 62.385H49.999H51.2656L51.385 62.5887C51.4585 62.7143 51.5832 62.8387 51.7097 62.9128C51.8864 63.0164 51.9546 63.0306 52.2012 63.0148C52.5187 62.9947 52.6662 62.9087 52.8666 62.6269C53.0368 62.3877 53.0321 61.9709 52.8563 61.7173C52.4706 61.1606 51.6641 61.2075 51.3596 61.8042L51.2724 61.975H50.0015H48.7306L48.6247 61.7832C48.5311 61.6137 48.4412 61.532 48.159 61.3601C48.0904 61.3184 48.0852 61.01 48.0965 57.6776L48.1089 54.0406L49.4753 55.2084C50.2267 55.8507 51.0773 56.5781 51.3654 56.8248C51.6534 57.0715 52.3503 57.6667 52.9139 58.1476C53.4775 58.6284 54.2768 59.3121 54.6901 59.6668C55.1034 60.0214 55.4826 60.3457 55.5327 60.3873C55.5828 60.4288 55.9428 60.7364 56.3328 61.0709C56.7227 61.4053 57.1625 61.7815 57.3101 61.9067C57.4578 62.032 57.6734 62.2165 57.7894 62.3167C57.9054 62.4169 58.1726 62.6459 58.3833 62.8256C58.5939 63.0054 59.3094 63.6167 59.9733 64.1842C60.6371 64.7516 61.3526 65.363 61.5632 65.5427C62.2059 66.091 62.3576 66.2206 62.7786 66.5817C63.0016 66.7731 63.5735 67.2612 64.0495 67.6664C64.5254 68.0717 65.0788 68.5442 65.2792 68.7163C66.4177 69.6945 67.6724 70.762 67.7137 70.7875C67.7468 70.808 67.7614 65.9124 67.7614 54.7126V38.6083H63.7976C60.6684 38.6083 59.8292 38.6203 59.8123 38.6653ZM48.0862 45.2972C48.0862 47.0071 48.0873 47.0291 48.1803 47.0587C48.232 47.0751 48.3448 47.1503 48.4308 47.226C48.5318 47.3146 48.6144 47.353 48.6635 47.3342C48.7053 47.3181 49.2415 47.0053 49.8551 46.639L50.9705 45.973L50.8605 45.8865C50.8 45.8389 50.1702 45.3041 49.461 44.698C48.7518 44.0919 48.1523 43.5891 48.1288 43.5808C48.1028 43.5715 48.0862 44.2396 48.0862 45.2972Z" fill="url(#paint0_linear_0_20)"/>
<defs>
<linearGradient id="paint0_linear_0_20" x1="50.6667" y1="42.6667" x2="50.6667" y2="100" gradientUnits="userSpaceOnUse">
<stop stop-color="#C79567"/>
<stop offset="1" stop-color="#1E1712"/>
</linearGradient>
</defs>
</svg>
